# xmcd CD database file
#
# Track frame offsets:
#	150
#	19227
#	35650
#	53992
#	72757
#	95272
#	114322
#	140122
#	168405
#	195502
#	217310
#	239122
#
# Disc length: 3495 seconds
#
# Revision: 1
# Processed by: cddbd v1.5.2PL0 Copyright (c) Steve Scherf et al.
# Submitted via: CDex 1.70beta2
#
DISCID=b60da50c
DTITLE=New Edition - Lost In love
DYEAR=1900
DGENRE=
TTITLE0=Lost In Love
TTITLE1=With You All The Way
TTITLE2=Earth Angel
TTITLE3=Boys To Men
TTITLE4=Can You Stand The Rain
TTITLE5=Old Friends
TTITLE6=Do What I Gotta Do (Ralph Tresvant)
TTITLE7=Girlfriend (Bobby Brown)
TTITLE8=Roni (Bobby Brown)
TTITLE9=Rock Witcha (Bobby Brown)
TTITLE10=Something In Your Eyes (Bell Biv Devoe)
TTITLE11=When Will I See You Smile Again (Bell Biv Devoe)
EXTD=
EXTT0=
EXTT1=
EXTT2=
EXTT3=
EXTT4=
EXTT5=
EXTT6=
EXTT7=
EXTT8=
EXTT9=
EXTT10=
EXTT11=
PLAYORDER=
